<?xml version="1.0" encoding="utf-8"?>
<!-- Generator: Adobe Illustrator 27.5.0, SVG Export Plug-In . SVG Version: 6.00 Build 0)  -->
<svg version="1.1" id="Capa_1" xmlns="http://www.w3.org/2000/svg" xmlns:xlink="http://www.w3.org/1999/xlink" x="0px" y="0px"
	 viewBox="0 0 2122 2122" style="enable-background:new 0 0 2122 2122;" xml:space="preserve">
<g>
	<g>
		<g>
			<path style="fill:#081B39;" d="M783.439,1401.666c21.106,55.634,29.924,106.601,26.75,167.275
				c-2.745,52.526,3.091,100.623,39.659,142.225c77.919,88.647,305.5,130.055,401.173,54.073
				c123.475-98.043,12.356-281.525,93.678-392.966c76.014-104.167,108.269-231.679,58.915-354.131
				c-29.5-73.181-78.857-134.683-87.361-213.862c-7.459-69.505-22.484-139.711-27.495-209.206
				c-4.195-58.163-12.979-94.798-48.424-145.188c-51.29-72.889-150.527-107.268-231.727-82.879
				c-127.076,38.158-135.451,153.112-150.715,263.652c-7.226,52.331-12.597,104.993-20.027,157.075
				c-6.029,42.299-14.633,83.122-22.063,125.368c-10.521,59.838-42.443,113.039-56.784,172.636
				c-13.32,55.417-26.155,116.866-20.533,173.436c4.826,48.606,24.833,91.205,42.591,136.388
				C781.888,1397.62,782.67,1399.636,783.439,1401.666z"/>
		</g>
		<g>
			<g>
				<path style="fill:#081B39;" d="M864.133,562.59c-7.289,29.782-9.84,60.722-13.309,91.136
					c-3.31,29.018-7.409,57.952-12.765,86.669c-5.162,27.678-11.75,55.228-21.34,81.728c-10.787,29.809-23.285,58.978-34.355,88.687
					c-8.209,22.034-15.424,44.235-25.267,65.632c-9.334,20.291-19.881,39.964-29.706,60.011
					c-9.114,18.598-17.33,37.784-22.386,57.917c-4.894,19.489-7.647,42.591-0.025,61.715c1.194,2.996,5.763,2.756,5.83-0.789
					c0.243-12.948-0.409-25.669,0.827-38.627c1.209-12.677,4.477-25.144,8.471-37.202c8.392-25.329,20.929-49.313,33.447-72.798
					c6.439-12.08,12.772-24.217,18.59-36.611c6.127-13.054,10.902-26.452,15.744-40.014c10.649-29.828,22.926-59.027,33.394-88.926
					c15.169-43.329,23.412-87.916,28.966-133.395c2.853-23.366,5.37-46.767,8.275-70.128c3.088-24.826,6.955-49.622,8.825-74.569
					C867.489,561.164,864.567,560.818,864.133,562.59L864.133,562.59z"/>
			</g>
		</g>
		<g>
			<g>
				<path style="fill:#081B39;" d="M835.003,1298.105c-2.075-5.547-3.828-11.047-5.261-16.794
					c-1.541-6.182-4.441-12.226-6.515-18.262c-4.103-11.937-8.121-23.922-11.657-36.04c-7.216-24.726-12.389-50.046-15.897-75.555
					c-7.154-52.028-6.02-105.352,4.614-156.822c5.565-26.934,12.146-53.408,21.695-79.242c4.59-12.417,9.843-24.569,15.643-36.467
					c5.835-11.97,11.821-24.704,15.893-37.375c0.897-2.79-2.811-4.754-4.789-2.788c-17.823,17.711-27.824,42.901-36.558,65.975
					c-9.143,24.154-15.957,49.163-20.878,74.504c-4.939,25.433-6.871,51.893-7.719,77.757c-0.857,26.098,0.108,52.416,2.625,78.403
					c2.775,28.651,7.929,57.04,15.396,84.838c3.673,13.675,7.77,27.365,13.057,40.509c2.535,6.302,5.226,12.541,8.026,18.729
					c3.005,6.64,7.512,12.802,11.205,19.103C834.224,1299.164,835.253,1298.772,835.003,1298.105L835.003,1298.105z"/>
			</g>
		</g>
		<g>
			<g>
				<path style="fill:#081B39;" d="M1348.493,835.352c-20.027-54.358-28.964-111.765-36.923-168.892
					c-7.26-52.109-12.942-105.39-32.032-154.806c-4.183-10.827-9.351-21.216-15.058-31.316
					c-5.886-10.416-12.558-21.287-23.009-27.502c-1.737-1.033-3.779,0.655-3.307,2.543c3.208,12.855,11.509,23.92,17.716,35.529
					c6.147,11.496,11.556,23.515,16.359,35.63c9.613,24.246,16.084,49.623,21.33,75.13c11.119,54.065,15.137,109.226,28.887,162.824
					c6.277,24.469,14.717,48.229,25.103,71.254C1347.796,836.274,1348.693,835.894,1348.493,835.352L1348.493,835.352z"/>
			</g>
		</g>
		<g>
			<g>
				<path style="fill:#081B39;" d="M1290.253,750.55c-4.802,18.193-1.318,38.911,2.747,56.947
					c4.234,18.785,11.256,36.719,19.664,54.003c17.395,35.756,40.792,68.251,63.988,100.391
					c43.704,60.557,91.901,127.657,81.931,206.594c-0.929,7.357-1.685,14.781-2.832,22.108c-0.213,1.358,1.785,2.523,2.432,1.025
					c31.779-73.644-13.906-151.244-55.032-210.606c-22.744-32.828-47.219-64.58-67.777-98.869
					c-19.991-33.344-34.728-68.859-39.638-107.59c-1.013-7.995-1.391-16.071-2.72-24.004
					C1292.774,749.106,1290.595,749.255,1290.253,750.55L1290.253,750.55z"/>
			</g>
		</g>
	</g>
	<g>
		<path style="fill:#EA9A8A;" d="M879.785,1104.711c-118.352-15.411-121.351,206.865-143.512,280.151
			c-21.14,69.861-35.912,150.51-60.764,218.719c-15.376,42.162-33.627,67.01,3.642,98.666c37.271,31.664,68.733,10.168,81.04-16.541
			c43.032-93.368,134.203-363.541,153.263-450.413C934.162,1140.935,879.785,1104.711,879.785,1104.711z"/>
	</g>
	<g>
		<path style="fill:#081B39;" d="M996.48,380.031c-27.379-11.557-41.016-53.688-39.717-80.414
			c1.747-36.043,29.944-61.51,63.885-69.973c23.583-5.878,51.717-8.39,75.863-3.902c21.167,3.941,51.727,8.955,66.642,25.651
			c11.462,12.823,12.56,37.291,9.876,53.285c-5.808,34.541-34.906,67.737-61.252,88.92L996.48,380.031z"/>
		<g>
			<g>
				<path style="fill:#081B39;" d="M949.595,288.556c1.712-6.231,4.943-12.031,8.037-17.706c3.456-6.34,7.701-12.417,12.589-17.731
					c9.857-10.713,21.306-19.917,34.401-26.347c11.74-5.765,25.465-9.139,38.549-7.296c6.832,0.962,13.193,3.393,18.955,7.154
					c6.293,4.109,10.655,10.107,17.764,12.952c1.879,0.752,3.36-1.389,3.021-3.021c-1.67-8.053-8.609-12.832-15.303-16.816
					c-6.443-3.835-13.79-6.525-21.168-7.787c-14.854-2.539-29.823,1.028-43.116,7.7c-13.393,6.723-25.832,16.979-34.87,28.926
					c-4.747,6.275-9.127,12.752-12.687,19.781c-3.313,6.541-4.86,13.009-6.37,20.135
					C949.371,288.629,949.56,288.684,949.595,288.556L949.595,288.556z"/>
			</g>
		</g>
		<g>
			<g>
				<path style="fill:#081B39;" d="M1165.164,357.365c4.53-5.701,7.482-13.458,10.524-20.052c3.372-7.309,6.128-14.864,7.861-22.732
					c2.989-13.57,1.756-28.547-3.188-41.53c-4.11-10.793-11.075-20.432-20.333-27.377c-4.603-3.453-9.553-6.083-14.86-8.282
					c-4.796-1.988-12.64-4.276-17.599-2.122c-1.312,0.57-1.446,2.639-0.456,3.536c3.218,2.917,9.366,4.18,13.486,5.557
					c5.17,1.727,9.983,4.36,14.436,7.48c8.477,5.939,14.688,14.873,18.443,24.418c4.714,11.982,6.239,24.835,4.803,37.608
					c-0.851,7.569-3.125,15.006-5.6,22.178c-2.394,6.936-6.452,13.943-7.86,21.12
					C1164.787,357.345,1165.025,357.54,1165.164,357.365L1165.164,357.365z"/>
			</g>
		</g>
		<g>
			<g>
				<path style="fill:#081B39;" d="M1191.959,289.318c-3.026-28.888-18.333-60.24-47.679-69.881
					c-12.971-4.261-27.381-4.977-40.887-3.724c-10.51,0.975-25.705,2.934-32.004,12.564c-0.62,0.948,0.408,2.343,1.503,1.954
					c10.245-3.638,19.515-7.574,30.501-8.692c12.355-1.257,25.13-0.349,37.099,2.986c13.059,3.639,22.832,12.712,30.766,23.444
					c9.286,12.561,16.584,26.198,20.501,41.375C1191.787,289.454,1191.972,289.434,1191.959,289.318L1191.959,289.318z"/>
			</g>
		</g>
	</g>
	<path style="fill:#F7A291;" d="M1205.497,720.342c-26.046,57.585-39.451,314.172-35.734,369.746
		c-32.034,54.769-128.764,42.881-136.286,31.351c-6.121-9.418,51.391-213.333,12.348-268.774
		c-33.361-47.41-50.284-66.562-25.685-90.961c44.226-43.861,104.386-57.003,161.426-71.259L1205.497,720.342z"/>
	<path style="fill:#FDE3DB;" d="M1276.948,1060.161c71.519,7.706,113.193,19.14,122.52,46.967
		c10.543,31.43-96.852,345.536-130.316,518.466c-20.47,105.797,62.319,186.12,60.374,203.866
		c-2.882,26.409-366.294,158.747-532.923,0c-16.306-15.525,85.892-171.253,86.813-229.944
		c2.202-139.699-63.768-93.339-80.004-200.149c-19.138-125.916,65.651-285.52,78.067-296.426c0,0,28.896-15.905,47.798-19.369
		c37.471-6.869,32.185,40.93,69.419,50.745c57.515,15.147,115.595,26.097,175.26,26.316L1276.948,1060.161z"/>
	<path style="fill:#DAD6D2;" d="M1269.153,1625.593c26.977-139.393,101.933-370.377,124.501-471.253
		c-20.556,0.46-40.811,2.205-60.195,8.414c0,0,0,0.012-0.019,0.012c-50.521,61.381-63.741,129.261-72.031,206.288
		c-8.151,75.668-61.183,140.371-134.391,140.371c0,0,83.441,21.761,125.965,2.624c0,0-11.145,170.145,72.179,323.266
		c2.675-2.275,4.195-4.263,4.365-5.857C1331.471,1811.713,1248.683,1731.39,1269.153,1625.593z"/>
	<path style="fill:#F7A291;" d="M1169.624,967.519c6.553,54.582,89.449,92.672,107.324,92.642c0,0,1.364,15.021-9.432,38.475
		c-9.45,20.534-55.13,161.818-210.227,161.818c-155.085,0-167.127-178.841-128.011-176.883
		c46.238,2.319,119.176-53.831,125.624-100.654c4.212-30.599,39.008-6.019,70.323-11.213L1169.624,967.519z"/>
	<path style="fill:#DAD6D2;" d="M1054.577,872.677c19.086,3.959,41.413-0.217,62.224,4.619
		c45.897,10.648,56.406,75.743,56.406,75.743c5.542-91.538,16.631-198.078,32.29-232.696l-23.932-29.898
		c-57.04,14.256-117.2,27.398-161.426,71.259c-24.599,24.399-7.676,43.551,25.685,90.961
		C1049.613,858.029,1052.46,864.835,1054.577,872.677z"/>
	<g>
		<g>
			<path style="fill:#F7A291;" d="M1216.225,518.427c-32.341-76.248-95.502-85.729-95.502-85.729
				c-12.835-2.967-25.695-5.257-38.414-6.758v-1.423c-2.531,0.161-5.081,0.431-7.622,0.672c-2.543-0.241-5.091-0.511-7.627-0.672
				v1.423c-12.714,1.501-25.574,3.791-38.411,6.758c0,0-63.162,9.481-95.5,85.729c-20.623,48.613-9.988,71.159-7.121,116.924
				c2.721,43.566,1.284,52.307,9.16,87.741c10.034,45.164,48.024,82.655,86.971,110.839c18.036,11.851,35.675,16.356,52.528,15.586
				c16.85,0.77,34.487-3.734,52.526-15.586c38.95-28.185,76.937-65.675,86.976-110.839c7.871-35.434,6.438-44.175,9.159-87.741
				C1226.212,589.586,1236.846,567.04,1216.225,518.427z"/>
		</g>
	</g>
	<g>
		<g>
			<g>
				<g>
					<path style="fill:#00001E;" d="M988.218,646.127c-5.076-11.827-24.027-1.78-17.314,9.68
						C977.424,666.938,993.064,657.419,988.218,646.127L988.218,646.127z"/>
				</g>
			</g>
			<g>
				<g>
					<path style="fill:#00001E;" d="M1138.689,646.127c-5.151-11.819-24.019-1.761-17.317,9.68
						C1127.879,666.913,1143.609,657.417,1138.689,646.127L1138.689,646.127z"/>
				</g>
			</g>
			<g>
				<g>
					<path style="fill:#1B2E50;" d="M1107.977,616.531c4.727-2.198,9.15-4.706,14.257-5.927c3.741-0.895,7.744-0.233,11.458,0.474
						c4.97,0.946,9.62,3.022,14.534,4.109c5.583,1.235,13.844-0.889,11.81-8.286c-1.614-5.868-9.62-7.775-14.601-9.472
						c-4.873-1.66-10.046-3.132-15.227-3.196c-10.961-0.134-21.711,5.546-29.266,13.179
						C1096.058,612.345,1102.202,619.217,1107.977,616.531L1107.977,616.531z"/>
				</g>
			</g>
			<g>
				<g>
					<path style="fill:#1B2E50;" d="M1007.834,607.413c-7.531-7.612-17.43-12.517-28.156-13.154
						c-4.633-0.275-9.365,1.019-13.763,2.342c-5.396,1.624-13.407,3.428-16.47,8.657c-3.484,5.948,2.149,10.074,7.51,10.468
						c5.394,0.397,11.733-3.156,16.957-4.394c3.63-0.86,7.76-1.549,11.486-0.957c5.558,0.883,10.38,3.82,15.401,6.157
						C1006.573,619.219,1012.714,612.345,1007.834,607.413L1007.834,607.413z"/>
				</g>
			</g>
		</g>
		<path style="fill:#F79983;" d="M1184.961,675.314c-28.224-15.247-95.069,36.338-50.806,60.823
			C1178.41,760.641,1213.18,690.547,1184.961,675.314z"/>
		<path style="fill:#F79983;" d="M928.133,674.391c0.928,15.547,2.285,27.242,7.055,48.701c0.911,4.107,2.131,8.132,3.486,12.107
			c10.531,6.86,23.863,8.896,38.216,0.938C1020.12,712.227,957.375,662.486,928.133,674.391z"/>
		<g>
			<g>
				<g>
					<path style="fill:#BDB7B2;" d="M1009.644,616.139c2.627,5.039,5.858,9.695,8.626,14.657c3.306,5.927,5.543,12.152,8.11,18.398
						c0.233,0.568,1.22,0.569,1.166-0.158c-0.895-12.195-9.426-24.513-17.786-32.988
						C1009.7,615.987,1009.606,616.066,1009.644,616.139L1009.644,616.139z"/>
				</g>
			</g>
			<g>
				<g>
					<path style="fill:#BDB7B2;" d="M1034.172,675.585c0.848,8.355,0.248,16.691-1.713,24.854
						c-1.377,5.731-3.486,11.271-4.288,17.133c-0.663,4.851,1.752,7.517,6.358,9.188c4.993,1.812,10.602,2.295,15.553,0.118
						c0.464-0.204,0.131-0.972-0.343-0.814c-5.433,1.808-11.566,0.437-16.286-2.614c-4.818-3.114-1.946-9.951-0.767-14.448
						c2.991-11.409,4.628-21.78,2.214-33.515C1034.818,675.079,1034.13,675.167,1034.172,675.585L1034.172,675.585z"/>
				</g>
			</g>
		</g>
		<g>
			<path style="fill:#F0EFEE;" d="M1025.442,755.886c41.849,8.964,83.699-11.679,83.699-11.679
				c-8.348,24.867-65.21,44.039-72.791,24.29C1033.766,761.752,1025.442,755.886,1025.442,755.886z"/>
		</g>
		<g>
			<g>
				<g>
					<path style="fill:#DAD6D2;" d="M1063.926,810.813c6.075-3.368,11.994-4.053,18.761-4.508c1.436-0.097,1.801-1.759,0.697-2.575
						c-6.913-5.108-16.08-0.699-21.597,4.31C1060.264,809.423,1062.21,811.764,1063.926,810.813L1063.926,810.813z"/>
				</g>
			</g>
		</g>
	</g>
	<path style="fill:#EA9A8A;" d="M660.296,1669.215c8.051-81.395,89.471-48.864,141.341-39.31
		c70.438,12.974,277.803,45.04,298.745,42.356c20.947-2.678,44.231-2.709,68.869-13.995c28.458-13.033,53.685-19.517,84.822-17.89
		c11.532,0.589,33.15,4.672,34.329,12.263c2.08,13.345-9.194,13.798-28.494,13.057c-5.279-0.205-20.699,4.122-31.384,3.089
		c30.3,11.272,88.482-1.203,124.089,15.062c21.6,9.873,32.409,21.939,19.719,44.655c-15.515,27.8-38.318,14.075-62.874,23.893
		c-9.883,3.956-21.179,19.722-55.922,17.722c-19.427-1.118-42.565-4.852-60.886-10.668c-23.376-7.41-54.472-18.509-73.13-21.434
		c-18.66-2.913-267.474,21.62-332.935,9.783C709.043,1733.792,657.061,1701.943,660.296,1669.215z"/>
	<g>
		<path style="fill:#F7A291;" d="M1347.498,1074.081c119.056,8.326,77.989,226.78,85.208,303.015
			c6.882,72.655,5.398,154.629,16.253,226.407c6.721,44.385,19.691,72.355-23.113,96.007c-42.794,23.651-69.378-3.642-76.151-32.265
			c-23.7-100.036-59.571-382.91-61.057-471.835C1287.028,1098.816,1347.498,1074.081,1347.498,1074.081z"/>
	</g>
	<g>
		<g>
			<path style="fill:#22385D;" d="M1358.111,1100.28c-17.932-44.618-54.282-78.365-75.28-121.855
				c-24.938-51.656-23.929-94.216-8.424-148.113c11.666-40.506,25.858-116.379,24.255-158.128
				c-1.427-36.905-9.228-47.259-16.343-127.492c-4.051-45.666-36.713-151.092-147.046-172.853
				c-82.652-16.307-175.918-3.004-230.458,67.2c-79.451,102.277-30.548,224.293-37.91,339.658
				c-3.352,52.467-33.491,81.135-51.741,127.926c-17.749,45.524-11.844,89.29,11.452,130.793
				c21.844,38.906,43.137,69.033,26.212,116.426c-17.564,49.147-65.159,81.298-56.92,139.448
				c6.711,47.352,53.593,90.523,102.418,79.693c119.022-26.39,60.569-186.347,80.228-264.49
				c12.058-47.953,34.163-86.81,14.224-136.542c-22.848-56.967-19.898-118.077-48.747-172.174
				c-17.298-32.431-16.18-67.154-13.793-103.446c6.073-92.414,48.589-171.808,135.222-211.803
				c86.486-39.908,129.248,81.604,144.14,172.042c5.995,0.716,9.501,39.88,9.132,57.671c-0.853,41.447-24.102,75.541-39.485,112.666
				c-18.022,43.488-32.621,86.947-13.766,132.191c15.225,36.528,42.933,67.286,55.912,104.978
				c17.459,50.696-15.161,87.736-30.197,134.281c-11.028,34.119-6.322,79.069,28.229,98.121
				c42.48,23.41,126.211,0.28,141.214-48.192C1375.383,1200.632,1377.071,1147.451,1358.111,1100.28z"/>
			<g>
				<path style="fill:#F7A291;" d="M1209.599,656.569c7.639-31.025,55.427-59.122,61.551-10.324
					c5.047,40.204-41.288,123.207-62.012,47.327L1209.599,656.569z"/>
			</g>
		</g>
		<g>
			<g>
				<path style="fill:#22385D;" d="M951.323,712.316c1.249-3.434,3.281-7.238,3.577-10.859c0.352-4.308,0.868-8.607,1.42-12.893
					c1.094-8.493,2.595-16.964,4.239-25.366c3.496-17.864,8.621-35.494,15.546-52.335c7.516-18.278,17.274-35.237,29.216-50.97
					c12.976-17.095,28.925-31.846,45.296-45.612c12.277-10.323,25.608-19.508,39.303-27.839c7.556-4.596,15.329-8.831,23.218-12.824
					c8.168-4.135,17.447-7.703,23.855-14.422c3.749-3.93,1.107-10.608-4.414-10.657c-13.357-0.119-26.932,8.507-38.34,14.729
					c-11.025,6.014-21.674,12.707-31.921,19.964c-18.802,13.316-35.472,29.193-49.795,47.209
					c-24.365,30.647-42.788,66.882-53.878,104.399c-3.817,12.914-6.88,26.199-8.661,39.553c-0.849,6.369-1.513,12.757-1.995,19.164
					c-0.203,2.696-1.356,7.304-0.407,9.86c1.06,2.856,1.538,5.963,2.358,8.9C950.142,713.037,951.089,712.959,951.323,712.316
					L951.323,712.316z"/>
			</g>
		</g>
		<g>
			<g>
				<path style="fill:#22385D;" d="M1092.273,472.002c2.71,3.952,5.309,6.5,9.332,9.118c3.887,2.53,7.503,5.409,10.965,8.489
					c7.029,6.253,13.103,13.503,18.405,21.256c11.505,16.823,19.768,35.344,26.075,54.672c6.689,20.5,11.179,41.685,14.743,62.93
					c3.316,19.767,4.53,40.901,11.227,59.89c1.086,3.078,5.053,2.321,5.428-0.735c2.515-20.485-1.473-42.226-4.845-62.411
					c-3.697-22.131-8.573-44.119-15.662-65.426c-6.651-19.99-15.35-39.999-28.161-56.854c-6.051-7.961-12.841-15.257-20.589-21.592
					c-3.664-2.996-7.522-5.744-11.532-8.254c-4.588-2.871-8.459-4.12-13.883-3.701
					C1092.567,469.477,1091.467,470.827,1092.273,472.002L1092.273,472.002z"/>
			</g>
		</g>
		<g>
			<g>
				<path style="fill:#22385D;" d="M882.533,503.291c-3.386,4.725-6.049,9.322-7.972,14.816c-2.466,7.045-4.325,14.3-6,21.568
					c-4.182,18.147-5.773,37.204-7.557,55.703c-3.767,39.064-5.507,78.354-7.46,117.544c-0.672,13.49-1.093,27.027-2.193,40.49
					c-2.172,26.572-8.33,52.664-14.149,78.618c-11.333,50.546-22.168,107.537-0.835,157.04c1.138,2.64,5.126,0.707,4.489-1.893
					c-3.62-14.776-6.627-29.575-7.565-44.787c-0.882-14.303-0.025-28.672,1.685-42.881c3.454-28.69,10.603-56.833,16.594-85.061
					c5.251-24.741,9.802-49.846,10.408-75.193c0.357-14.931,0.563-29.865,0.9-44.797c0.811-35.904,2.675-71.809,6.286-107.549
					c1.637-16.2,4.091-32.203,6.74-48.258c1.057-6.41,2.347-12.787,4.024-19.065c1.354-5.067,2.259-10.456,4.37-15.263
					C884.829,503.12,883.31,502.207,882.533,503.291L882.533,503.291z"/>
			</g>
		</g>
		<g>
			<g>
				<path style="fill:#22385D;" d="M1194.907,789.462c-5.163,13.031-12.042,25.157-17.646,37.98
					c-5.253,12.019-10.699,23.975-15.255,36.281c-9.419,25.438-15.911,53.179-13.232,80.452
					c2.634,26.818,14.288,51.912,23.485,76.917c5.149,13.999,9.311,27.534,10.143,42.529c0.76,13.692-0.232,27.351-0.771,41.026
					c-0.343,8.693-1.226,17.486-0.144,26.149c0.297,2.373,3.375,2.968,4.222,0.571c4.633-13.123,7.142-27.855,8.871-41.643
					c1.738-13.862,1.72-27.3-0.55-41.103c-2.379-14.47-8.157-28.15-13.782-41.605c-5.132-12.276-11.974-23.861-16.222-36.515
					c-9.167-27.304-7.441-55.694,0.024-83.173c6.984-25.713,19.936-49.412,26.867-75.05c2.005-7.417,4.08-14.824,5.964-22.272
					C1197.212,788.698,1195.382,788.263,1194.907,789.462L1194.907,789.462z"/>
			</g>
		</g>
		<g>
			<g>
				<path style="fill:#22385D;" d="M1252.282,487.929c3.742,5.543,6.419,11.656,9.769,17.407c4.014,6.89,7.109,14.273,9.786,21.77
					c6.436,18.025,10.481,36.964,13.634,55.807c3.439,20.554,6.167,41.683,6.856,62.528c0.641,19.395,0.667,38.858,0.592,58.262
					c-0.153,39.705-5.895,78.783-9.252,118.274c-3.904,45.926-4.632,97.06,18.08,138.758c8.229,15.107,19.801,32.185,35.403,40.219
					c2.89,1.488,6.484-1.597,4.621-4.621c-6.488-10.529-15.116-19.398-21.648-29.94c-6.063-9.786-11.018-20.421-14.822-31.276
					c-7.708-21.994-10.126-45.319-10.329-68.502c-0.393-44.809,8.049-89.06,10.025-133.734c1.649-37.282-1.074-74.224-4.851-111.3
					c-3.861-37.899-9.474-77.888-26.683-112.343c-4.728-9.466-10.566-17.301-19.92-22.572
					C1252.775,486.237,1251.745,487.134,1252.282,487.929L1252.282,487.929z"/>
			</g>
		</g>
	</g>
	<path style="fill:#F7A291;" d="M1450.878,1670.854c8.222-81.368-78.026-65.61-130.769-66.516
		c-71.602-1.225-281.208-10.848-301.208-17.63c-20.009-6.767-42.821-11.415-64.74-27.349c-25.32-18.414-48.76-29.766-79.597-34.336
		c-11.42-1.705-33.422-1.978-36.083,5.218c-4.677,12.672,6.285,15.352,25.344,18.45c5.223,0.843,19.481,8.127,30.158,9.238
		c-31.939,5.057-86.496-18.697-124.618-9.803c-23.128,5.401-36.109,15.089-28.17,39.873c9.705,30.309,34.772,21.371,56.893,35.868
		c8.911,5.827,16.86,23.515,51.308,28.433c19.267,2.752,42.684,3.676,61.79,1.603c24.382-2.641,57.062-7.369,75.936-6.522
		c18.865,0.829,257.893,74.138,324.399,75.5C1390.308,1724.505,1447.57,1703.575,1450.878,1670.854z"/>
</g>
</svg>
